<?xml version="1.0" encoding="UTF-8" standalone="no"?><!DOCTYPE svg PUBLIC "-//W3C//DTD SVG 1.1//EN" "http://www.w3.org/Graphics/SVG/1.1/DTD/svg11.dtd"><svg width="100%" height="100%" viewBox="0 0 49 55" version="1.1" xmlns="http://www.w3.org/2000/svg" xmlns:xlink="http://www.w3.org/1999/xlink" xml:space="preserve" xmlns:serif="http://www.serif.com/" style="fill-rule:evenodd;clip-rule:evenodd;stroke-linejoin:round;stroke-miterlimit:2;"><g id="hand"><path d="M31.308,40.916l-2.537,-5.467l-28.771,13.35l2.537,5.467l28.771,-13.35Z" style="fill:#b4b4b4;"/><path d="M38.005,16.047l-5.869,-1.368l-5.176,22.203l5.87,1.369l5.175,-22.204Z" style="fill:#b4b4b4;"/><path d="M30.812,33.633c2.293,0.535 3.721,2.83 3.186,5.123c-0.534,2.294 -2.83,3.721 -5.123,3.187c-2.293,-0.535 -3.721,-2.83 -3.186,-5.123c0.534,-2.294 2.83,-3.721 5.123,-3.187Z" style="fill:#565656;"/><path d="M45.119,5.984c-0.033,-0.398 0.127,-0.789 0.429,-1.05c0.303,-0.261 0.712,-0.362 1.102,-0.271c0.004,-0.018 0.004,-0.018 0.005,-0.018c1.069,0.249 1.831,1.194 1.847,2.291c-0.012,0.896 -0.11,1.806 -0.322,2.716c-1.437,6.166 -7.61,10.005 -13.775,8.568c-6.166,-1.438 -10.005,-7.61 -8.568,-13.776c0.27,-1.159 0.707,-2.235 1.28,-3.21c0.54,-0.896 1.577,-1.367 2.607,-1.183c0.527,0.092 1.033,0.285 1.342,0.634c0.124,0.201 0.102,0.459 -0.054,0.637c-0.795,0.975 -1.405,2.133 -1.71,3.442c-1.005,4.313 1.68,8.63 5.993,9.635c4.313,1.006 8.63,-1.68 9.635,-5.992c0.19,-0.815 0.248,-1.63 0.189,-2.423Z" style="fill:#565656;"/></g></svg>