<?xml version="1.0" encoding="UTF-8" standalone="no"?><!DOCTYPE svg PUBLIC "-//W3C//DTD SVG 1.1//EN" "http://www.w3.org/Graphics/SVG/1.1/DTD/svg11.dtd"><svg width="100%" height="100%" viewBox="0 0 124 119" version="1.1" xmlns="http://www.w3.org/2000/svg" xmlns:xlink="http://www.w3.org/1999/xlink" xml:space="preserve" xmlns:serif="http://www.serif.com/" style="fill-rule:evenodd;clip-rule:evenodd;stroke-linejoin:round;stroke-miterlimit:2;"><g id="robot-head" serif:id="robot head"><g><path id="neck" d="M74.988,101.422c-0,-1.776 -1.442,-3.217 -3.217,-3.217l-19.813,-0c-1.776,-0 -3.217,1.441 -3.217,3.217l-0,13.673c-0,1.776 1.441,3.218 3.217,3.218l19.813,-0c1.775,-0 3.217,-1.442 3.217,-3.218l-0,-13.673Z" style="fill:#565656;"/><g id="ears"><g><path d="M110.242,57.655c0,-1.665 -1.351,-3.017 -3.017,-3.017l-6.034,-0c-1.665,-0 -3.017,1.352 -3.017,3.017l0,21.321c0,1.665 1.352,3.017 3.017,3.017l6.034,-0c1.666,-0 3.017,-1.352 3.017,-3.017l0,-21.321Z" style="fill:#565656;"/><rect x="107.445" y="67.346" width="7.374" height="1.938" style="fill:#565656;"/></g><g><path d="M13.214,57.655c0,-1.665 1.352,-3.017 3.017,-3.017l6.034,-0c1.665,-0 3.017,1.352 3.017,3.017l0,21.321c0,1.665 -1.352,3.017 -3.017,3.017l-6.034,-0c-1.665,-0 -3.017,-1.352 -3.017,-3.017l0,-21.321Z" style="fill:#565656;"/><rect x="8.637" y="67.346" width="7.374" height="1.938" style="fill:#565656;"/></g></g><g><rect x="60.918" y="7.752" width="1.893" height="19.063" style="fill:#565656;"/></g></g><g id="antennas"><circle cx="117.914" cy="68.315" r="5.814" style="fill:#f70000;"/><circle cx="5.814" cy="68.315" r="5.814" style="fill:#f70000;"/><circle cx="61.864" cy="3.876" r="3.876" style="fill:#f70000;"/></g><path id="head-bg" serif:id="head bg" d="M106.013,26.999c-0,-1.723 -1.399,-3.122 -3.122,-3.122l-82.054,0c-1.723,0 -3.122,1.399 -3.122,3.122l0,71.799c0,1.723 1.399,3.122 3.122,3.122l82.054,0c1.723,0 3.122,-1.399 3.122,-3.122l-0,-71.799Z" style="fill:#b4b4b4;"/><g id="eyes"><path d="M46.992,49.299c7.506,4.333 10.081,13.946 5.748,21.452c-4.334,7.506 -13.946,10.081 -21.452,5.748c-7.506,-4.334 -10.082,-13.946 -5.748,-21.452c4.334,-7.506 13.946,-10.082 21.452,-5.748Z"/><clipPath id="_clip1"><path d="M46.992,49.299c7.506,4.333 10.081,13.946 5.748,21.452c-4.334,7.506 -13.946,10.081 -21.452,5.748c-7.506,-4.334 -10.082,-13.946 -5.748,-21.452c4.334,-7.506 13.946,-10.082 21.452,-5.748Z"/></clipPath><g clip-path="url(#_clip1)"><g><path d="M32.848,71.548c0.784,-1.357 0.318,-3.095 -1.039,-3.879c-1.357,-0.784 -3.096,-0.318 -3.879,1.039l-5.068,8.778c-0.783,1.357 -0.318,3.095 1.04,3.879c1.357,0.783 3.095,0.317 3.879,-1.04l5.067,-8.777Z" style="fill:#e0e0e0;"/><path d="M25.983,67.584c0.783,-1.357 0.318,-3.095 -1.04,-3.879c-1.357,-0.783 -3.095,-0.318 -3.879,1.04l-5.067,8.777c-0.784,1.357 -0.318,3.095 1.039,3.879c1.358,0.783 3.096,0.318 3.879,-1.04l5.068,-8.777Z" style="fill:#e0e0e0;"/><path d="M39.714,75.512c0.783,-1.358 0.317,-3.096 -1.04,-3.879c-1.357,-0.784 -3.095,-0.318 -3.879,1.039l-5.067,8.777c-0.784,1.358 -0.318,3.096 1.039,3.879c1.357,0.784 3.095,0.318 3.879,-1.039l5.068,-8.777Z" style="fill:#e0e0e0;"/><path d="M46.579,79.475c0.784,-1.357 0.318,-3.095 -1.039,-3.879c-1.358,-0.783 -3.096,-0.317 -3.879,1.04l-5.068,8.777c-0.784,1.357 -0.318,3.095 1.039,3.879c1.358,0.784 3.096,0.318 3.879,-1.039l5.068,-8.778Z" style="fill:#e0e0e0;"/></g><g id="shine"><path d="M46.644,60.496c0.987,0.569 1.325,1.834 0.755,2.821c-0.569,0.987 -1.834,1.325 -2.821,0.756c-0.987,-0.57 -1.325,-1.834 -0.755,-2.822c0.569,-0.987 1.833,-1.325 2.821,-0.755Z" style="fill:#fff;"/><path d="M34.674,55.562c1.638,0.946 2.2,3.043 1.255,4.681c-0.946,1.638 -3.043,2.2 -4.681,1.254c-1.638,-0.945 -2.2,-3.043 -1.254,-4.681c0.945,-1.637 3.043,-2.199 4.68,-1.254Z" style="fill:#fff;"/></g></g><path d="M92.44,49.299c7.506,4.333 10.082,13.946 5.748,21.452c-4.333,7.506 -13.945,10.081 -21.451,5.748c-7.506,-4.334 -10.082,-13.946 -5.748,-21.452c4.333,-7.506 13.945,-10.082 21.451,-5.748Z"/><clipPath id="_clip2"><path d="M92.44,49.299c7.506,4.333 10.082,13.946 5.748,21.452c-4.333,7.506 -13.945,10.081 -21.451,5.748c-7.506,-4.334 -10.082,-13.946 -5.748,-21.452c4.333,-7.506 13.945,-10.082 21.451,-5.748Z"/></clipPath><g clip-path="url(#_clip2)"><g><path d="M78.297,71.548c0.783,-1.357 0.318,-3.095 -1.04,-3.879c-1.357,-0.784 -3.095,-0.318 -3.879,1.039l-5.067,8.778c-0.784,1.357 -0.318,3.095 1.039,3.879c1.358,0.783 3.096,0.317 3.879,-1.04l5.068,-8.777Z" style="fill:#e0e0e0;"/><path d="M71.432,67.584c0.783,-1.357 0.317,-3.095 -1.04,-3.879c-1.357,-0.783 -3.095,-0.318 -3.879,1.04l-5.067,8.777c-0.784,1.357 -0.318,3.095 1.039,3.879c1.357,0.783 3.095,0.318 3.879,-1.04l5.068,-8.777Z" style="fill:#e0e0e0;"/><path d="M85.162,75.512c0.784,-1.358 0.318,-3.096 -1.039,-3.879c-1.357,-0.784 -3.096,-0.318 -3.879,1.039l-5.068,8.777c-0.783,1.358 -0.318,3.096 1.04,3.879c1.357,0.784 3.095,0.318 3.879,-1.039l5.067,-8.777Z" style="fill:#e0e0e0;"/><path d="M92.028,79.475c0.783,-1.357 0.317,-3.095 -1.04,-3.879c-1.357,-0.783 -3.095,-0.317 -3.879,1.04l-5.067,8.777c-0.784,1.357 -0.318,3.095 1.039,3.879c1.357,0.784 3.095,0.318 3.879,-1.039l5.068,-8.778Z" style="fill:#e0e0e0;"/></g><g id="shine1" serif:id="shine"><path d="M92.092,60.496c0.987,0.569 1.326,1.834 0.756,2.821c-0.57,0.987 -1.834,1.325 -2.821,0.756c-0.987,-0.57 -1.326,-1.834 -0.756,-2.822c0.57,-0.987 1.834,-1.325 2.821,-0.755Z" style="fill:#fff;"/><path d="M80.123,55.562c1.638,0.946 2.2,3.043 1.254,4.681c-0.945,1.638 -3.043,2.2 -4.68,1.254c-1.638,-0.945 -2.2,-3.043 -1.255,-4.681c0.946,-1.637 3.043,-2.199 4.681,-1.254Z" style="fill:#fff;"/></g></g></g><g id="mouth"><path d="M58.552,80.519c0,-0.522 -0.424,-0.946 -0.946,-0.946c-0.523,-0 -0.947,0.424 -0.947,0.946l0,5.678c0,0.522 0.424,0.946 0.947,0.946c0.522,0 0.946,-0.424 0.946,-0.946l0,-5.678Z"/><path d="M61.391,80.519c-0,-0.522 -0.424,-0.946 -0.946,-0.946c-0.523,-0 -0.947,0.424 -0.947,0.946l0,5.678c0,0.522 0.424,0.946 0.947,0.946c0.522,0 0.946,-0.424 0.946,-0.946l-0,-5.678Z"/><path d="M64.23,80.519c-0,-0.522 -0.424,-0.946 -0.946,-0.946c-0.523,-0 -0.947,0.424 -0.947,0.946l0,5.678c0,0.522 0.424,0.946 0.947,0.946c0.522,0 0.946,-0.424 0.946,-0.946l-0,-5.678Z"/><path d="M67.069,80.519c-0,-0.522 -0.424,-0.946 -0.946,-0.946c-0.523,-0 -0.947,0.424 -0.947,0.946l0,5.678c0,0.522 0.424,0.946 0.947,0.946c0.522,0 0.946,-0.424 0.946,-0.946l-0,-5.678Z"/></g><g><rect x="98.211" y="26.815" width="4.732" height="4.732" style="fill:#45b9d8;"/><rect x="98.211" y="33.439" width="4.732" height="0.946"/><rect x="98.211" y="34.902" width="4.732" height="0.946"/></g><g><rect x="20.733" y="93.839" width="4.732" height="4.732" style="fill:#45b9d8;"/><rect x="27.083" y="93.839" width="4.732" height="4.732" style="fill:#45b9d8;"/></g></g></svg>