<svg width="130" height="128" viewBox="0 0 130 128" fill="none" xmlns="http://www.w3.org/2000/svg">
<g filter="url(#filter0_d)">
<ellipse cx="49.7108" cy="58.2313" rx="43.4447" ry="47.7892" transform="rotate(177.601 49.7108 58.2313)" fill="#40A8C4"/>
<g filter="url(#filter1_i)">
<ellipse cx="49.821" cy="78.1564" rx="11.5853" ry="11.2232" transform="rotate(177.601 49.821 78.1564)" fill="#C4C4C4"/>
<path d="M37.6597 43.1549C37.4002 36.962 42.3722 31.7244 48.7649 31.4565C55.1577 31.1887 60.5504 35.9919 60.8099 42.1849C61.0694 48.3779 56.0974 53.6154 49.7047 53.8833C43.3119 54.1512 37.9192 49.3479 37.6597 43.1549Z" fill="#C4C4C4"/>
</g>
<ellipse cx="65.9399" cy="108.281" rx="17.0158" ry="10.8612" transform="rotate(177.601 65.9399 108.281)" fill="#40A8C4"/>
<ellipse cx="64.8625" cy="13.3889" rx="17.0158" ry="10.8612" transform="rotate(177.601 64.8625 13.3889)" fill="#40A8C4"/>
<ellipse cx="110.514" cy="95.5963" rx="6.51671" ry="6.15467" transform="rotate(-149.115 110.514 95.5963)" fill="#40A8C4"/>
<path d="M113.047 95.1267C111.457 95.4386 109.965 94.2551 109.882 92.6374C109.77 90.445 109.596 87.7459 109.384 86.9054C109.01 85.4157 108.043 81.5881 106.515 77.5959C105.499 74.9384 105.56 74.3742 102.595 71.4545C100.876 69.7614 95.8872 68.1602 91.9984 67.1135C89.5376 66.4512 88.3057 63.6066 89.6138 61.4196C90.4541 60.0147 92.1101 59.3292 93.6701 59.8254C98.1536 61.2515 107.157 64.634 111.161 69.8283C113.723 73.1521 115.07 75.3435 115.956 79.4456C116.626 82.5513 116.153 87.579 116.153 87.579L115.127 93.0302C114.928 94.0888 114.104 94.9193 113.047 95.1267Z" fill="#40A8C4"/>
</g>
<defs>
<filter id="filter0_d" x="0.303467" y="1.82483" width="128.763" height="126.021" filterUnits="userSpaceOnUse" color-interpolation-filters="sRGB">
<feFlood flood-opacity="0" result="BackgroundImageFix"/>
<feColorMatrix in="SourceAlpha" type="matrix" values="0 0 0 0 0 0 0 0 0 0 0 0 0 0 0 0 0 0 127 0"/>
<feOffset dy="4"/>
<feGaussianBlur stdDeviation="2"/>
<feColorMatrix type="matrix" values="0 0 0 0 0 0 0 0 0 0 0 0 0 0 0 0 0 0 0.25 0"/>
<feBlend mode="normal" in2="BackgroundImageFix" result="effect1_dropShadow"/>
<feBlend mode="normal" in="SourceGraphic" in2="effect1_dropShadow" result="shape"/>
</filter>
<filter id="filter1_i" x="35.1899" y="30.9715" width="26.6761" height="59.8833" filterUnits="userSpaceOnUse" color-interpolation-filters="sRGB">
<feFlood flood-opacity="0" result="BackgroundImageFix"/>
<feBlend mode="normal" in="SourceGraphic" in2="BackgroundImageFix" result="shape"/>
<feColorMatrix in="SourceAlpha" type="matrix" values="0 0 0 0 0 0 0 0 0 0 0 0 0 0 0 0 0 0 127 0" result="hardAlpha"/>
<feOffset dx="-2" dy="1"/>
<feGaussianBlur stdDeviation="2"/>
<feComposite in2="hardAlpha" operator="arithmetic" k2="-1" k3="1"/>
<feColorMatrix type="matrix" values="0 0 0 0 0 0 0 0 0 0 0 0 0 0 0 0 0 0 0.25 0"/>
<feBlend mode="normal" in2="shape" result="effect1_innerShadow"/>
</filter>
</defs>
</svg>
